<?xml version="1.0" encoding="iso-8859-1"?>
<!-- Generator: Adobe Illustrator 19.0.0, SVG Export Plug-In . SVG Version: 6.00 Build 0)  -->
<svg version="1.1" id="Capa_1" xmlns="http://www.w3.org/2000/svg" xmlns:xlink="http://www.w3.org/1999/xlink" x="0px" y="0px"
	 viewBox="0 0 512 512" style="enable-background:new 0 0 512 512;" xml:space="preserve">
<circle style="fill:#474B63;" cx="255.997" cy="255.996" r="237.93"/>
<path style="fill:#3E4356;" d="M89.855,255.999c0-119.206,87.664-217.932,202.039-235.24
	C146.914-1.178,18.065,111.139,18.065,255.999c0,144.837,128.829,257.181,273.829,235.24
	C177.519,473.932,89.855,375.205,89.855,255.999z"/>
<path style="fill:#E3E5E5;" d="M242.173,96.167c-4.266,0-7.726,3.458-7.726,7.726v78.34c0,12.6-10.251,22.85-22.851,22.85h-5.013
	v-101.19c0-4.267-3.458-7.726-7.726-7.726c-4.267,0-7.726,3.458-7.726,7.726v101.191h-5.015c-12.6,0-22.851-10.25-22.851-22.85
	v-78.34c0-4.267-3.458-7.726-7.726-7.726c-4.267,0-7.726,3.458-7.726,7.726v78.34c0,21.119,17.182,38.301,38.301,38.301h5.015
	v57.326c0,4.267,3.458,7.726,7.726,7.726c4.267,0,7.726-3.458,7.726-7.726v-57.326h5.013c21.12,0,38.302-17.182,38.302-38.301
	v-78.34C249.899,99.626,246.44,96.167,242.173,96.167z"/>
<path style="fill:#6EDCF9;" d="M256,0.044C114.84,0.044,0,114.864,0,255.998c0,141.107,114.858,255.959,256,255.959
	C397.16,511.957,512,397.134,512,255.998C512,115.121,397.358,0.044,256,0.044z M407.134,426.77v0.002
	C265.842,556.592,27.813,454.654,27.813,255.999c0,0-5.287-143.525,132.443-207.062c91.188-42.372,199.505-19.699,266.546,55.953
	v0.002c61.928,69.887,57.384,151.106,57.384,151.106C484.186,321.178,456.4,383.126,407.134,426.77z"/>
<path style="fill:#37CAE2;" d="M27.813,255.999c0,0,0-0.021,0-0.018C27.956,125.415,130.484,8.042,270.068,0.436
	C123.086-7.593,0,109.785,0,255.998c0,141.107,114.858,255.959,256,255.959c4.727,0,9.422-0.139,14.087-0.393
	C134.621,504.188,27.813,391.173,27.813,255.999z"/>
<g>
	<path style="fill:#D37044;" d="M198.858,408.522c-7.111,0-12.876-5.766-12.876-12.876V280.279c0-7.112,5.765-12.876,12.876-12.876
		s12.876,5.764,12.876,12.876v115.368C211.734,402.756,205.969,408.522,198.858,408.522z"/>
	<path style="fill:#D37044;" d="M330.708,395.646c0,7.11,5.764,12.876,12.876,12.876c7.11,0,12.876-5.766,12.876-12.876V280.072
		h-25.752L330.708,395.646L330.708,395.646z"/>
</g>
<g>
	<path style="fill:#C16B3D;" d="M198.858,395.646V280.279c0-4.764,2.594-8.913,6.438-11.14c-1.896-1.098-4.089-1.737-6.438-1.737
		c-7.111,0-12.876,5.764-12.876,12.876v115.368c0,7.11,5.765,12.876,12.876,12.876c2.349,0,4.542-0.639,6.438-1.738
		C201.452,404.558,198.858,400.408,198.858,395.646z"/>
	<path style="fill:#C16B3D;" d="M343.584,395.646V280.072h-12.876v115.575c0,9.903,10.746,16.103,19.314,11.139
		C346.176,404.558,343.584,400.408,343.584,395.646z"/>
</g>
<path style="fill:#E3E5E5;" d="M353.085,103.094c-28.24,2.229-50.36,32.195-50.36,68.22v106.697c0,1.991,1.614,3.605,3.605,3.605
	h47.039c1.992,0,3.605-1.615,3.605-3.605V106.688C356.974,104.604,355.206,102.935,353.085,103.094z"/>
<path style="fill:#D6D6D6;" d="M329.334,278.011V171.314c0-25.531,11.116-48.004,27.64-59.732c0-4.993,0.299-6.195-1.159-7.542
	c-0.738-0.682-1.726-1.022-2.731-0.947c-28.24,2.229-50.36,32.195-50.36,68.22v106.697c0,1.991,1.614,3.605,3.605,3.605h26.609
	C330.949,281.617,329.334,280.002,329.334,278.011z"/>
<g>
</g>
<g>
</g>
<g>
</g>
<g>
</g>
<g>
</g>
<g>
</g>
<g>
</g>
<g>
</g>
<g>
</g>
<g>
</g>
<g>
</g>
<g>
</g>
<g>
</g>
<g>
</g>
<g>
</g>
</svg>
