<?xml version="1.0" encoding="iso-8859-1"?>
<!-- Generator: Adobe Illustrator 19.0.0, SVG Export Plug-In . SVG Version: 6.00 Build 0)  -->
<svg version="1.1" id="Capa_1" xmlns="http://www.w3.org/2000/svg" xmlns:xlink="http://www.w3.org/1999/xlink" x="0px" y="0px"
	 viewBox="0 0 512 512" style="enable-background:new 0 0 512 512;" xml:space="preserve">
<circle style="fill:#35CCFF;" cx="256" cy="256" r="256"/>
<path style="fill:#00BAFF;" d="M263.958,511.865C401.659,507.659,512,394.722,512,256c0-3.663-0.095-7.303-0.248-10.929
	l-91.117-91.118L94.36,216.277l64.749,64.749l-37.991,6.721l49.604,49.604l-32.138,18.299l35.289,35.289l-21.86,8.981
	L263.958,511.865z"/>
<path style="fill:#FFDC00;" d="M382.713,231.369H129.288c-26.511,0-48.003-21.491-48.003-48.002l0,0
	c0-26.511,21.491-48.002,48.003-48.002h253.425c26.511,0,48.003,21.491,48.003,48.002l0,0
	C430.715,209.878,409.224,231.369,382.713,231.369z"/>
<g>
	<path style="fill:#FFC000;" d="M382.713,135.364H255.667v96.005h127.046c26.511,0,48.002-21.491,48.002-48.002l0,0
		C430.715,156.855,409.224,135.364,382.713,135.364z"/>
	<path style="fill:#FFC000;" d="M365.446,296.479H146.555c-22.898,0-41.461-18.563-41.461-41.461l0,0
		c0-22.898,18.563-41.461,41.461-41.461h218.891c22.898,0,41.461,18.563,41.461,41.461l0,0
		C406.907,277.916,388.344,296.479,365.446,296.479z"/>
</g>
<path style="fill:#D6A416;" d="M365.446,213.556H255.667v82.922h109.779c22.898,0,41.461-18.563,41.461-41.461l0,0
	C406.907,232.119,388.344,213.556,365.446,213.556z"/>
<path style="fill:#FFDC00;" d="M353.824,361.256H158.177c-20.467,0-37.058-16.592-37.058-37.058l0,0
	c0-20.467,16.592-37.058,37.058-37.058h195.647c20.467,0,37.058,16.592,37.058,37.058l0,0
	C390.882,344.664,374.29,361.256,353.824,361.256z"/>
<g>
	<path style="fill:#FFC000;" d="M353.824,287.139h-98.157v74.117h98.157c20.467,0,37.058-16.592,37.058-37.059l0,0
		C390.882,303.73,374.291,287.139,353.824,287.139z"/>
	<path style="fill:#FFC000;" d="M337.199,410.02H174.801c-16.989,0-30.761-13.772-30.76-30.76l0,0
		c0-16.989,13.772-30.76,30.761-30.76H337.2c16.989,0,30.76,13.772,30.76,30.76l0,0C367.959,396.248,354.187,410.02,337.199,410.02z
		"/>
</g>
<path style="fill:#D6A416;" d="M337.199,348.499h-81.532v61.521h81.532c16.989,0,30.761-13.772,30.761-30.76l0,0
	C367.959,362.271,354.188,348.499,337.199,348.499z"/>
<circle style="fill:#997100;" cx="256" cy="262" r="68.827"/>
<path style="fill:#6D4E00;" d="M256,193.173c-0.112,0-0.222,0.008-0.333,0.008v137.638c0.112,0,0.221,0.008,0.333,0.008
	c38.012,0,68.827-30.815,68.827-68.827S294.012,193.173,256,193.173z"/>
<g>
</g>
<g>
</g>
<g>
</g>
<g>
</g>
<g>
</g>
<g>
</g>
<g>
</g>
<g>
</g>
<g>
</g>
<g>
</g>
<g>
</g>
<g>
</g>
<g>
</g>
<g>
</g>
<g>
</g>
</svg>
