<?xml version="1.0" encoding="iso-8859-1"?>
<!-- Generator: Adobe Illustrator 19.0.0, SVG Export Plug-In . SVG Version: 6.00 Build 0)  -->
<svg version="1.1" id="Capa_1" xmlns="http://www.w3.org/2000/svg" xmlns:xlink="http://www.w3.org/1999/xlink" x="0px" y="0px"
	 viewBox="0 0 512 512" style="enable-background:new 0 0 512 512;" xml:space="preserve">
<circle style="fill:#2864F0;" cx="256" cy="256" r="256"/>
<path style="fill:#0942A8;" d="M510.116,287.094L367.022,144l-1.608,3.914L273.5,56l-6.808,150.884l-120.184-5.971l48.973,48.973
	l-76.796,23.146l43.809,43.809l-47.345,25.09l58.404,58.404l-27.045,16.94l94.261,94.261C245.809,511.833,250.885,512,256,512
	C386.858,512,494.77,413.813,510.116,287.094z"/>
<rect x="238.5" y="56" style="fill:#FE9A35;" width="35" height="88"/>
<rect x="255.95" y="56" style="fill:#FF7C11;" width="17.548" height="88"/>
<path style="fill:#FFEA3A;" d="M342.359,209.032H169.641c-20.542,0-37.194-16.652-37.194-37.194l0,0
	c0-20.542,16.652-37.194,37.194-37.194h172.718c20.542,0,37.194,16.652,37.194,37.194l0,0
	C379.553,192.38,362.9,209.032,342.359,209.032z"/>
<g>
	<path style="fill:#F9C41E;" d="M342.359,134.644h-86.406v74.388h86.406c20.542,0,37.194-16.652,37.194-37.194l0,0
		C379.553,151.296,362.9,134.644,342.359,134.644z"/>
	<path style="fill:#F9C41E;" d="M342.359,425.356H169.641c-20.542,0-37.194-16.652-37.194-37.194l0,0
		c0-20.542,16.652-37.194,37.194-37.194h172.718c20.542,0,37.194,16.652,37.194,37.194l0,0
		C379.553,408.704,362.9,425.356,342.359,425.356z"/>
</g>
<path style="fill:#F2A600;" d="M342.359,350.968h-86.406v74.389h86.406c20.542,0,37.194-16.652,37.194-37.194l0,0
	C379.553,367.62,362.9,350.968,342.359,350.968z"/>
<path style="fill:#F9C41E;" d="M370.147,281.14H141.853c-20.542,0-37.194-16.652-37.194-37.194l0,0
	c0-20.542,16.652-37.194,37.194-37.194h228.295c20.542,0,37.194,16.652,37.194,37.194l0,0
	C407.341,264.488,390.689,281.14,370.147,281.14z"/>
<path style="fill:#F2A600;" d="M370.147,206.752H255.952v74.388h114.195c20.542,0,37.194-16.652,37.194-37.194l0,0
	C407.342,223.404,390.689,206.752,370.147,206.752z"/>
<path style="fill:#FFEA3A;" d="M370.147,353.248H141.853c-20.542,0-37.194-16.652-37.194-37.194l0,0
	c0-20.542,16.652-37.194,37.194-37.194h228.295c20.542,0,37.194,16.652,37.194,37.194l0,0
	C407.341,336.596,390.689,353.248,370.147,353.248z"/>
<path style="fill:#F9C41E;" d="M370.147,278.86H255.952v74.388h114.195c20.542,0,37.194-16.652,37.194-37.194l0,0
	C407.342,295.512,390.689,278.86,370.147,278.86z"/>
<circle style="fill:#666666;" cx="256" cy="316.05" r="28"/>
<path style="fill:#4D4D4D;" d="M256,288.054c-0.016,0-0.032,0.001-0.048,0.001v55.998c0.016,0,0.031,0.001,0.048,0.001
	c15.464,0,28-12.536,28-28S271.464,288.054,256,288.054z"/>
<g>
</g>
<g>
</g>
<g>
</g>
<g>
</g>
<g>
</g>
<g>
</g>
<g>
</g>
<g>
</g>
<g>
</g>
<g>
</g>
<g>
</g>
<g>
</g>
<g>
</g>
<g>
</g>
<g>
</g>
</svg>
