<?xml version="1.0" encoding="iso-8859-1"?>
<!-- Generator: Adobe Illustrator 19.0.0, SVG Export Plug-In . SVG Version: 6.00 Build 0)  -->
<svg version="1.1" id="Layer_1" xmlns="http://www.w3.org/2000/svg" xmlns:xlink="http://www.w3.org/1999/xlink" x="0px" y="0px"
	 viewBox="0 0 509.287 509.287" style="enable-background:new 0 0 509.287 509.287;" xml:space="preserve">
<circle style="fill:#29B36F;" cx="254.644" cy="254.644" r="254.644"/>
<path style="fill:#F1F3F7;" d="M277.701,247.184H139.698c-14.241,0-25.77,11.528-25.77,25.77v174.622
	c0,14.241,11.528,25.77,25.77,25.77h138.003c14.241,0,25.77-11.528,25.77-25.77V273.293
	C303.809,259.052,291.942,247.184,277.701,247.184z"/>
<path style="fill:#FBD303;" d="M123.762,343.481v104.434c0,8.816,7.121,15.597,15.597,15.597h138.003
	c8.816,0,15.597-7.121,15.597-15.597V343.481H123.762z"/>
<path style="fill:#333842;" d="M478.771,201.07L176.996,54.252c-6.103-3.052-13.224-0.339-15.936,5.425
	c-3.052,6.103-0.339,13.224,5.425,15.936l302.114,146.819c6.103,3.052,13.224,0.339,15.936-5.425
	C487.248,211.242,484.874,204.122,478.771,201.07z"/>
<g>
	<path style="fill:#F5EA0A;" d="M212.938,41.028c-8.816-4.408-19.666-0.678-24.074,8.477l-18.988,38.993
		c-4.408,8.816-0.678,19.666,8.477,24.074c8.816,4.408,19.666,0.678,24.074-8.477l18.988-38.993
		C225.823,56.286,222.093,45.436,212.938,41.028z"/>
	<path style="fill:#F5EA0A;" d="M275.666,160.042L275.666,160.042c-8.816-4.408-12.546-15.258-8.477-24.074l18.988-38.993
		c4.408-8.816,15.258-12.546,24.074-8.477l0,0c8.816,4.408,12.546,15.258,8.477,24.074l-18.988,38.993
		C295.332,160.721,284.482,164.45,275.666,160.042z"/>
</g>
<g>
	<path style="fill:#FBD303;" d="M222.771,151.905v167.841c0,8.477,5.425,15.258,12.207,15.258c6.781,0,12.207-6.781,12.207-15.258
		V151.905H222.771z"/>
	<path style="fill:#FBD303;" d="M198.358,114.268v167.841c0,8.477,5.425,15.258,12.207,15.258c6.781,0,12.207-6.781,12.207-15.258
		V114.268H198.358z"/>
</g>
<g>
	<path style="fill:#F5EA0A;" d="M257.695,31.873c-8.816-4.408-19.666-0.678-24.074,8.477l-43.401,88.837
		c-4.408,8.816-0.678,19.666,8.477,24.074c8.816,4.408,19.666,0.678,24.074-8.477l43.062-88.498
		C270.241,47.131,266.511,36.281,257.695,31.873z"/>
	<path style="fill:#F5EA0A;" d="M289.907,47.809c-8.816-4.408-19.666-0.678-24.074,8.477l-43.062,88.498
		c-4.408,8.816-0.678,19.666,8.477,24.074c8.816,4.408,19.666,0.678,24.074-8.477l43.062-88.837
		C302.792,63.068,299.062,52.217,289.907,47.809z"/>
</g>
<rect x="145.123" y="233.282" style="fill:#BDBDBE;" width="127.152" height="13.902"/>
<path style="fill:#646B79;" d="M280.074,205.139h-142.75c-7.799,0-14.241,6.442-14.241,14.241c0,7.799,6.442,14.241,14.241,14.241
	h142.75c7.799,0,14.241-6.442,14.241-14.241C294.315,211.242,287.873,205.139,280.074,205.139z"/>
<g>
</g>
<g>
</g>
<g>
</g>
<g>
</g>
<g>
</g>
<g>
</g>
<g>
</g>
<g>
</g>
<g>
</g>
<g>
</g>
<g>
</g>
<g>
</g>
<g>
</g>
<g>
</g>
<g>
</g>
</svg>
